<?xml version="1.0" encoding="UTF-8" standalone="no"?>
<!DOCTYPE svg PUBLIC "-//W3C//DTD SVG 1.1//EN" "http://www.w3.org/Graphics/SVG/1.1/DTD/svg11.dtd">
<svg width="100%" height="100%" viewBox="0 0 1230 309" version="1.1" xmlns="http://www.w3.org/2000/svg" xmlns:xlink="http://www.w3.org/1999/xlink" xml:space="preserve" style="fill-rule:evenodd;clip-rule:evenodd;stroke-linecap:round;stroke-linejoin:round;stroke-miterlimit:10;">
    <g transform="matrix(1,0,0,1,0,-44)">
        <rect x="3" y="104.5" width="287.5" height="144" style="fill:rgb(207,238,252);"/>
    </g>
    <g transform="matrix(1,0,0,-1,-187,343)">
        <rect x="190" y="138.5" width="287.5" height="144" style="fill:none;stroke:black;stroke-width:1px;"/>
    </g>
    <g transform="matrix(1,0,0,1,0,-261.5)">
        <path d="M388.5,262.5L696.5,262.5C708.098,262.5 717.5,271.902 717.5,283.5L717.5,287C717.5,298.598 708.098,308 696.5,308L388.5,308C376.902,308 367.5,298.598 367.5,287L367.5,283.5C367.5,271.902 376.902,262.5 388.5,262.5Z" style="fill:rgb(255,255,191);fill-rule:nonzero;"/>
    </g>
    <g transform="matrix(1,0,0,-1,-187,125.5)">
        <path d="M575.5,124.5L883.5,124.5C895.098,124.5 904.5,115.098 904.5,103.5L904.5,100C904.5,88.402 895.098,79 883.5,79L575.5,79C563.902,79 554.5,88.402 554.5,100L554.5,103.5C554.5,115.098 563.902,124.5 575.5,124.5ZM575.5,124.5L575.5,124.5" style="fill:none;fill-rule:nonzero;stroke:black;stroke-width:1px;"/>
    </g>
    <g transform="matrix(1,0,0,-1,-187,191.138)">
        <path d="M477.5,101.75L515.184,101.75L515.184,167.388L554.5,167.388" style="fill:none;fill-rule:nonzero;stroke:rgb(221,31,0);stroke-width:3px;stroke-linecap:butt;"/>
    </g>
    <g transform="matrix(1,0,0,1,0,-90.5)">
        <rect x="820.5" y="152" width="406.5" height="95.5" style="fill:rgb(207,238,252);"/>
    </g>
    <g transform="matrix(1,0,0,-1,-187,296.5)">
        <rect x="1007.5" y="139.5" width="406.5" height="95.5" style="fill:none;stroke:black;stroke-width:1px;"/>
    </g>
    <g transform="matrix(1,0,0,-1,-187,196.385)">
        <path d="M904.5,172.635L935.391,172.635L935.391,101.75L991.6,101.75" style="fill:none;fill-rule:nonzero;stroke:rgb(180,64,174);stroke-width:3px;stroke-linecap:butt;"/>
    </g>
    <g transform="matrix(1,0,0,1,0,-119.729)">
        <path d="M815.8,214.364L804.6,210.164L804.6,218.564L815.8,214.364Z" style="fill:rgb(180,64,174);fill-rule:nonzero;stroke:rgb(180,64,174);stroke-width:3px;stroke-linecap:butt;stroke-linejoin:miter;"/>
    </g>
    <g transform="matrix(1,0,0,1,0,-90.5)">
        <path d="M388.5,155L696.5,155C708.098,155 717.5,164.402 717.5,176L717.5,223.5C717.5,235.098 708.098,244.5 696.5,244.5L388.5,244.5C376.902,244.5 367.5,235.098 367.5,223.5L367.5,176C367.5,164.402 376.902,155 388.5,155Z" style="fill:rgb(255,255,191);fill-rule:nonzero;"/>
    </g>
    <g transform="matrix(1,0,0,-1,-187,296.5)">
        <path d="M575.5,232L883.5,232C895.098,232 904.5,222.598 904.5,211L904.5,163.5C904.5,151.902 895.098,142.5 883.5,142.5L575.5,142.5C563.902,142.5 554.5,151.902 554.5,163.5L554.5,211C554.5,222.598 563.902,232 575.5,232ZM575.5,232L575.5,232" style="fill:none;fill-rule:nonzero;stroke:black;stroke-width:1px;"/>
    </g>
    <g transform="matrix(1,0,0,-1,-187,296.569)">
        <path d="M477.5,187.25L489.5,187.25L542.5,187.319L554.5,187.319" style="fill:none;fill-rule:nonzero;stroke:rgb(2,36,195);stroke-width:3px;stroke-linecap:butt;"/>
    </g>
    <g transform="matrix(1,0,0,-1,-187,296.986)">
        <path d="M904.5,187.736L916.5,187.736L956,187.493L984.6,187.25L991.6,187.25" style="fill:none;fill-rule:nonzero;stroke:rgb(58,151,156);stroke-width:3px;stroke-linecap:butt;"/>
    </g>
    <g transform="matrix(1,0,0,1,0,-89.5284)">
        <path d="M815.8,199.264L804.6,195.064L804.6,203.464L815.8,199.264Z" style="fill:rgb(58,151,156);fill-rule:nonzero;stroke:rgb(58,151,156);stroke-width:3px;stroke-linecap:butt;stroke-linejoin:miter;"/>
    </g>
    <g transform="matrix(1,0,0,1,0,124.5)">
        <path d="M388.5,47.5L696.5,47.5C708.098,47.5 717.5,56.902 717.5,68.5L717.5,116C717.5,127.598 708.098,137 696.5,137L388.5,137C376.902,137 367.5,127.598 367.5,116L367.5,68.5C367.5,56.902 376.902,47.5 388.5,47.5Z" style="fill:rgb(255,255,191);fill-rule:nonzero;"/>
    </g>
    <g transform="matrix(1,0,0,-1,-187,511.5)">
        <path d="M575.5,339.5L883.5,339.5C895.098,339.5 904.5,330.098 904.5,318.5L904.5,271C904.5,259.402 895.098,250 883.5,250L575.5,250C563.902,250 554.5,259.402 554.5,271L554.5,318.5C554.5,330.098 563.902,339.5 575.5,339.5ZM575.5,339.5L575.5,339.5" style="fill:none;fill-rule:nonzero;stroke:black;stroke-width:1px;"/>
    </g>
    <g>
        <text x="8px" y="81.5px" style="font-family:'Menlo-Regular', 'Menlo', monospace;font-size:14px;">{</text>
        <text x="24.859px" y="97.5px" style="font-family:'Menlo-Regular', 'Menlo', monospace;font-size:14px;">&quot;</text>
        <text x="33.288px" y="97.5px" style="font-family:'Menlo-Regular', 'Menlo', monospace;font-size:14px;fill:rgb(210,0,0);">ident</text>
        <text x="75.433px" y="97.5px" style="font-family:'Menlo-Regular', 'Menlo', monospace;font-size:14px;">&quot;: &quot;ABC&quot;,</text>
        <text x="24.859px" y="113.5px" style="font-family:'Menlo-Regular', 'Menlo', monospace;font-size:14px;">&quot;</text>
        <text x="33.288px" y="113.5px" style="font-family:'Menlo-Regular', 'Menlo', monospace;font-size:14px;fill:rgb(0,0,182);">generated</text>
        <text x="109.149px" y="113.5px" style="font-family:'Menlo-Regular', 'Menlo', monospace;font-size:14px;">&quot;: 1599923760000,</text>
        <text x="24.859px" y="129.5px" style="font-family:'Menlo-Regular', 'Menlo', monospace;font-size:14px;">&quot;</text>
        <text x="33.288px" y="129.5px" style="font-family:'Menlo-Regular', 'Menlo', monospace;font-size:14px;fill:rgb(0,102,0);">author</text>
        <text x="83.86px" y="129.5px" style="font-family:'Menlo-Regular', 'Menlo', monospace;font-size:14px;">:&quot;: {</text>
    </g>
    <g>
        <text x="41.718px" y="145.5px" style="font-family:'Menlo-Regular', 'Menlo', monospace;font-size:14px;">&quot;name&quot;: &quot;Andy Armstrong&quot;,</text>
        <text x="41.718px" y="161.5px" style="font-family:'Menlo-Regular', 'Menlo', monospace;font-size:14px;">&quot;email&quot;: &quot;andy@example.com&quot;</text>
        <text x="24.859px" y="177.5px" style="font-family:'Menlo-Regular', 'Menlo', monospace;font-size:14px;">}</text>
    </g>
    <text x="8px" y="193.5px" style="font-family:'Menlo-Regular', 'Menlo', monospace;font-size:14px;">}</text>
    <g>
        <text x="372.5px" y="28.75px" style="font-family:'Menlo-Regular', 'Menlo', monospace;font-size:14px;">{ src: "</text>
        <text x="439.932px" y="28.75px" style="font-family:'Menlo-Regular', 'Menlo', monospace;font-size:14px;fill:rgb(210,0,0);">$.ident</text>
        <text x="498.932px" y="28.75px" style="font-family:'Menlo-Regular', 'Menlo', monospace;font-size:14px;">", dst: "</text>
        <text x="574.793px" y="28.75px" style="font-family:'Menlo-Regular', 'Menlo', monospace;font-size:14px;fill:rgb(180,64,174);">$.ID</text>
        <text x="608.507px" y="28.75px" style="font-family:'Menlo-Regular', 'Menlo', monospace;font-size:14px;">" }</text>
    </g>
    <g>
        <text x="825.5px" y="82.25px" style="font-family:'Menlo-Regular', 'Menlo', monospace;font-size:14px;">{</text>
        <text x="842.359px" y="98.25px" style="font-family:'Menlo-Regular', 'Menlo', monospace;font-size:14px;">&quot;</text>
        <text x="850.788px" y="98.25px" style="font-family:'Menlo-Regular', 'Menlo', monospace;font-size:14px;fill:rgb(180,64,174);">ID</text>
        <text x="867.646px" y="98.25px" style="font-family:'Menlo-Regular', 'Menlo', monospace;font-size:14px;">&quot;: &quot;ABC&quot;,</text>
        <text x="842.359px" y="114.25px" style="font-family:'Menlo-Regular', 'Menlo', monospace;font-size:14px;">&quot;</text>
        <text x="850.788px" y="114.25px" style="font-family:'Menlo-Regular', 'Menlo', monospace;font-size:14px;fill:rgb(58,151,156);">created</text>
        <text x="909.792px" y="114.25px" style="font-family:'Menlo-Regular', 'Menlo', monospace;font-size:14px;">&quot;: &quot;2020-09-12T15:16:00.000Z&quot;,</text>
        <text x="842.359px" y="130.25px" style="font-family:'Menlo-Regular', 'Menlo', monospace;font-size:14px;">&quot;</text>
        <text x="850.788px" y="130.25px" style="font-family:'Menlo-Regular', 'Menlo', monospace;font-size:14px;fill:rgb(173,101,8);">author</text>
        <text x="901.363px" y="130.25px" style="font-family:'Menlo-Regular', 'Menlo', monospace;font-size:14px;">&quot;: &quot;Andy Armstrong &lt;andy@example.com&gt;&quot;</text>
        <text x="825.5px" y="146.25px" style="font-family:'Menlo-Regular', 'Menlo', monospace;font-size:14px;">}</text>
    </g>
    <g>
        <text x="372.5px" y="98.25px" style="font-family:'Menlo-Regular', 'Menlo', monospace;font-size:14px;">{ src: "</text>
        <text x="439.932px" y="98.25px" style="font-family:'Menlo-Regular', 'Menlo', monospace;font-size:14px;fill:rgb(0,0,182);">$.generated</text>
        <text x="532.648px" y="98.25px" style="font-family:'Menlo-Regular', 'Menlo', monospace;font-size:14px;">",</text>
        <text x="389.359px" y="114.25px" style="font-family:'Menlo-Regular', 'Menlo', monospace;font-size:14px;">dst: "</text>
        <text x="439.932px" y="114.25px" style="font-family:'Menlo-Regular', 'Menlo', monospace;font-size:14px;fill:rgb(58,151,156);">$.created</text>
        <text x="515.789px" y="114.25px" style="font-family:'Menlo-Regular', 'Menlo', monospace;font-size:14px;">"</text>
        <text x="389.359px" y="130.25px" style="font-family:'Menlo-Regular', 'Menlo', monospace;font-size:14px;">via: t =&gt; new Date(t).toISOString() }</text>
    </g>
    <g>
        <text x="372.5px" y="205.75px" style="font-family:'Menlo-Regular', 'Menlo', monospace;font-size:14px;">{ src: "</text>
        <text x="439.932px" y="205.75px" style="font-family:'Menlo-Regular', 'Menlo', monospace;font-size:14px;fill:rgb(0,102,0);">$.author</text>
        <text x="507.362px" y="205.75px" style="font-family:'Menlo-Regular', 'Menlo', monospace;font-size:14px;">",</text>
        <text x="389.359px" y="221.75px" style="font-family:'Menlo-Regular', 'Menlo', monospace;font-size:14px;">dst: "</text>
        <text x="439.932px" y="221.75px" style="font-family:'Menlo-Regular', 'Menlo', monospace;font-size:14px;fill:rgb(173,101,8);">$.author</text>
        <text x="507.36px" y="221.75px" style="font-family:'Menlo-Regular', 'Menlo', monospace;font-size:14px;">"</text>
        <text x="389.359px" y="237.75px" style="font-family:'Menlo-Regular', 'Menlo', monospace;font-size:14px;">via: a =&gt; `${a.name} &lt;${a.email}&gt;` }</text>
    </g>
    <text x="8px" y="241px" style="font-family:'Menlo-Regular', 'Menlo', monospace;font-size:16px;">Input document</text>
    <text x="825.5px" y="195.5px" style="font-family:'Menlo-Regular', 'Menlo', monospace;font-size:16px;">Output document</text>
    <text x="372.5px" y="299.5px" style="font-family:'Menlo-Regular', 'Menlo', monospace;font-size:16px;">Rules</text>
    <g transform="matrix(1,0,0,-1,-187,443.915)">
        <path d="M477.5,294.75L514.914,294.75L514.914,227.165L554.5,227.165" style="fill:none;fill-rule:nonzero;stroke:rgb(0,118,0);stroke-width:3px;stroke-linecap:butt;"/>
    </g>
    <g transform="matrix(1,0,0,-1,-187,419.216)">
        <path d="M904.5,202.467L937.262,202.467L937.262,294.75L992.28,294.75" style="fill:none;fill-rule:nonzero;stroke:rgb(173,101,8);stroke-width:3px;stroke-linecap:butt;"/>
    </g>
    <g transform="matrix(1,0,0,1,0,-60.067)">
        <path d="M816.48,184.533L805.28,180.333L805.28,188.733L816.48,184.533Z" style="fill:rgb(173,101,8);fill-rule:nonzero;stroke:rgb(173,101,8);stroke-width:3px;stroke-linecap:butt;stroke-linejoin:miter;"/>
    </g>
</svg>
